<svg xmlns="http://www.w3.org/2000/svg" width="27" height="31" viewBox="0 0 27 31"><g><g><path fill="#d80b0f" d="M22.209 4.2l-1.632 1.634c5.33 5.33 5.33 14.005 0 19.335l1.633 1.633c6.228-6.233 6.228-16.37-.001-22.601zm-2.822 2.822l-1.632 1.63c3.776 3.776 3.776 9.921 0 13.696l1.634 1.631c4.672-4.674 4.672-12.284-.002-16.957zm-2.912 2.912l-1.633 1.634a5.567 5.567 0 0 1 0 7.868l1.633 1.633c3.07-3.07 3.07-8.066 0-11.135zM.436 8.945a101.73 101.73 0 0 0-.308 6.384h-.01c.001.057.005.114.005.172 0 .058-.004.115-.005.17h.01c.039 2.13.138 4.26.31 6.384.445 5.56 4.814 9.252 9.098 8.293.188-.037.384-.039.56-.111 1.044-.434 1.908-1.241 2.87-1.838 1.23-.768-1.418-7.299-3.058-6.457-.606.317-2.28 1.554-2.953 1.648-.602.084-1.071-.711-1.13-1.447-.158-1.937-.016-4.414-.004-6.47h.003v-.171-.172H5.82c-.012-2.058-.154-4.534.003-6.472.06-.735.53-1.531 1.131-1.445.673.093 2.347 1.33 2.953 1.646 1.64.843 4.286-5.69 3.059-6.457-.963-.597-1.827-1.405-2.87-1.837C9.919.69 9.722.69 9.536.652 5.251-.306.882 3.386.435 8.945z"/></g></g></svg>