<svg xmlns="http://www.w3.org/2000/svg" width="33" height="21" viewBox="0 0 33 21"><g><g><path fill="#fff" d="M33 10.5c0 .413-.123.833-.368 1.258-1.719 2.794-4.03 5.033-6.934 6.716-2.903 1.682-5.97 2.524-9.198 2.524-3.229 0-6.295-.844-9.198-2.533-2.904-1.689-5.215-3.925-6.934-6.707C.123 11.333 0 10.914 0 10.5c0-.413.123-.832.368-1.257 1.719-2.783 4.03-5.019 6.934-6.707C10.205.846 13.27.002 16.5.002s6.295.845 9.198 2.534c2.903 1.688 5.215 3.924 6.934 6.707.245.425.368.844.368 1.257zM10.901 8.167c0 .243.086.45.258.62.172.17.381.255.627.255a.857.857 0 0 0 .626-.255.84.84 0 0 0 .258-.62c0-1.045.374-1.938 1.123-2.68a3.71 3.71 0 0 1 2.707-1.11.856.856 0 0 0 .626-.256.84.84 0 0 0 .258-.62.84.84 0 0 0-.258-.62.858.858 0 0 0-.626-.254c-1.535 0-2.852.543-3.95 1.63C11.45 5.346 10.9 6.65 10.9 8.168zM30.643 10.5c-1.866-2.867-4.205-5.012-7.017-6.433a7.901 7.901 0 0 1 1.124 4.1c0 2.248-.807 4.17-2.422 5.769-1.614 1.597-3.557 2.396-5.828 2.396-2.271 0-4.214-.798-5.828-2.396-1.615-1.598-2.422-3.52-2.422-5.769 0-1.47.375-2.837 1.123-4.1-2.81 1.42-5.15 3.566-7.016 6.433 1.633 2.491 3.68 4.475 6.142 5.951a15.278 15.278 0 0 0 8.001 2.214c2.873 0 5.54-.738 8.001-2.214 2.462-1.476 4.509-3.46 6.142-5.95z"/></g></g></svg>