<svg xmlns="http://www.w3.org/2000/svg" width="16" height="16" viewBox="0 0 16 16"><g><g><path fill="#9399a4" d="M13.19 4.098a1.242 1.242 0 1 1 0-2.483 1.242 1.242 0 0 1 0 2.483zM8 2.818a5.186 5.186 0 0 1 5.18 5.18A5.187 5.187 0 0 1 8 13.178a5.187 5.187 0 0 1-5.181-5.18 5.186 5.186 0 0 1 5.18-5.18zm0 8.345a3.165 3.165 0 1 0 0-6.33 3.165 3.165 0 0 0 0 6.33zm8 .883V3.95a3.952 3.952 0 0 0-3.952-3.952H3.952A3.952 3.952 0 0 0-.001 3.95v8.096a3.952 3.952 0 0 0 3.953 3.952h8.096A3.952 3.952 0 0 0 16 12.046z"/></g></g></svg>